<?xml version="1.0" encoding="utf-8"?>
<!-- Generator: Adobe Illustrator 25.0.0, SVG Export Plug-In . SVG Version: 6.00 Build 0)  -->
<svg version="1.1" id="Layer_2" xmlns="http://www.w3.org/2000/svg" xmlns:xlink="http://www.w3.org/1999/xlink" x="0px" y="0px"
	 viewBox="0 0 24 24" style="enable-background:new 0 0 24 24;" xml:space="preserve">
<style type="text/css">
	.st0{fill-rule:evenodd;clip-rule:evenodd;fill:#C8C8C8;stroke:#FFFFFF;stroke-miterlimit:10;}
	.st1{fill-rule:evenodd;clip-rule:evenodd;fill:#FFFFFF;}
</style>
<g id="EPartnerBadge_1_">
	<g id="Group-3_1_" transform="translate(1.000000, 0.000000)">
		<path id="Stroke-1_1_" class="st0" d="M-0.0847,14.648v4.6971c0,0.5205,0.283,1.0017,0.7425,1.262l4.1456,2.3486
			c0.4594,0.2603,1.0255,0.2603,1.4851,0l4.1456-2.3486c0.4594-0.2602,0.7425-0.7414,0.7425-1.262V14.648
			c0-0.5206-0.2831-1.0017-0.7425-1.262l-4.1456-2.3486c-0.4596-0.2603-1.0257-0.2603-1.4851,0L0.6579,13.386
			C0.1983,13.6462-0.0847,14.1273-0.0847,14.648z"/>
		<polygon id="Fill-1_1_" class="st1" points="3.5212,14.1158 3.4508,14.1962 3.4508,15.3448 3.5212,15.4252 7.5707,15.4252 
			7.6411,15.3448 7.6411,14.1962 7.5707,14.1158 		"/>
		<polygon id="Fill-1-Copy-2_1_" class="st1" points="3.5212,18.5679 3.4508,18.6483 3.4508,19.7969 3.5212,19.8773 7.5707,19.8773 
			7.6411,19.7969 7.6411,18.6483 7.5707,18.5679 		"/>
		<polygon id="Fill-2_1_" class="st1" points="3.5188,16.3418 3.4508,16.4223 3.4508,17.5709 3.5188,17.6512 5.478,17.6512 
			5.5459,17.5709 5.5459,16.4223 5.478,16.3418 		"/>
	</g>
</g>
</svg>
